# xmcd
#
# Track frame offsets:
#	150
#	24570
#	45836
#	78766
#	98135
#	122505
#	142062
#	171868
#	184979
#	224902
#	250162
#	277042
#	307913
#
# Disc length: 4396 seconds
#
# Revision: 1
# Processed by: cddbd v1.5.1PL0 Copyright (c) Steve Scherf et al.
# Submitted via: audiograbber 1.83.01
#
DISCID=b4112a0d
DTITLE=Gary Moore - Blues Alive
DYEAR=1993
DGENRE=Blues
TTITLE0=Cold Day In Hell
TTITLE1=Walking By Myself
TTITLE2=Story Of The Blues
TTITLE3=Oh Pretty Woman
TTITLE4=Separate Ways
TTITLE5=Too Tired
TTITLE6=Still Got The Blues
TTITLE7=Since I Met You Baby
TTITLE8=The Sky Is Crying
TTITLE9=Further On Up The Road
TTITLE10=King Of The Blues
TTITLE11=Parisienne Walkways
TTITLE12=Jumpin' At Shadows
EXTD=
EXTT0=
EXTT1=
EXTT2=
EXTT3=
EXTT4=
EXTT5=
EXTT6=
EXTT7=
EXTT8=
EXTT9=
EXTT10=
EXTT11=
EXTT12=
PLAYORDER=
